<svg width="1200" height="820" viewBox="0 0 1200 820" xmlns="http://www.w3.org/2000/svg">
  <rect width="1200" height="820" fill="#8b8e91"/>
  <rect y="0" width="1200" height="110" fill="#575858"/>
  <rect y="110" width="1200" height="710" fill="#d6d0c7"/>
  <rect x="0" y="150" width="1200" height="220" fill="#5f5d58"/>
  <rect x="0" y="210" width="1200" height="18" fill="#77756f"/>
  <rect x="0" y="370" width="1200" height="450" fill="#c9c4bb"/>
  <rect x="0" y="472" width="1200" height="348" fill="#c8c1b5"/>
  <rect x="0" y="488" width="1200" height="332" fill="#d9d1c6"/>
  <rect x="0" y="504" width="1200" height="316" fill="#ddd4c8"/>
  <rect x="0" y="520" width="1200" height="300" fill="#d7cfc3"/>
  <rect x="0" y="536" width="1200" height="284" fill="#d4ccc0"/>
  <rect x="0" y="552" width="1200" height="268" fill="#d1c9bd"/>
  <rect x="0" y="568" width="1200" height="252" fill="#d0c8bc"/>
  <rect x="0" y="584" width="1200" height="236" fill="#cec6ba"/>
  <path d="M200 470V820" stroke="#e1c83c" stroke-width="10"/>
  <path d="M1000 470V820" stroke="#e1c83c" stroke-width="10"/>
  <path d="M378 468V820" stroke="#d0b43c" stroke-width="8" opacity="0.55"/>
  <path d="M818 468V820" stroke="#d0b43c" stroke-width="8" opacity="0.55"/>
  <rect x="450" y="420" width="300" height="32" fill="#2d2d2d" opacity="0.75"/>
  <text x="600" y="520" font-family="Arial, sans-serif" font-size="72" text-anchor="middle" fill="#af9336">21</text>
  <g>
    <rect x="40" y="326" width="304" height="202" rx="24" fill="#f4f4f4"/>
    <rect x="80" y="260" width="248" height="106" rx="26" fill="#ffffff"/>
    <circle cx="76" cy="534" r="32" fill="#42464b"/>
    <circle cx="308" cy="534" r="32" fill="#42464b"/>
  </g>
  <g>
    <rect x="856" y="316" width="304" height="212" rx="24" fill="#686662"/>
    <rect x="888" y="246" width="236" height="116" rx="26" fill="#7a7874"/>
    <circle cx="890" cy="536" r="32" fill="#3f4348"/>
    <circle cx="1108" cy="536" r="32" fill="#3f4348"/>
    <rect x="1020" y="388" width="64" height="20" fill="#b24b3c" opacity="0.8"/>
  </g>
</svg>
