<svg width="1200" height="820" viewBox="0 0 1200 820" xmlns="http://www.w3.org/2000/svg">
  <rect width="1200" height="820" fill="#c8c0b5"/>
  <rect y="0" width="1200" height="220" fill="#8c8a83"/>
  <rect y="220" width="1200" height="600" fill="#bdb7ad"/>
  <rect x="0" y="272" width="1200" height="548" fill="#c8c2b8"/>
  <rect x="0" y="300" width="1200" height="520" fill="#d8d2ca"/>
  <rect x="0" y="330" width="1200" height="490" fill="#d2ccc4"/>
  <rect x="0" y="360" width="1200" height="460" fill="#cbc5bd"/>
  <rect x="0" y="390" width="1200" height="430" fill="#c3bdb5"/>
  <rect x="0" y="420" width="1200" height="400" fill="#7c766e"/>
  <rect x="0" y="448" width="1200" height="372" fill="#8a847b"/>
  <rect x="0" y="476" width="1200" height="344" fill="#979189"/>
  <rect x="0" y="504" width="1200" height="316" fill="#a49f97"/>
  <rect x="0" y="532" width="1200" height="288" fill="#b5b0a9"/>
  <rect x="0" y="560" width="1200" height="260" fill="#c6c0b8"/>
  <rect x="0" y="588" width="1200" height="232" fill="#d7d1c9"/>
  <rect x="0" y="616" width="1200" height="204" fill="#dfd8d1"/>
  <path d="M260 430V790" stroke="#95d04e" stroke-width="10"/>
  <path d="M540 430V790" stroke="#95d04e" stroke-width="10"/>
  <path d="M830 430V790" stroke="#95d04e" stroke-width="10"/>
  <path d="M1045 430V790" stroke="#95d04e" stroke-width="10"/>
  <rect x="26" y="250" width="232" height="180" rx="22" fill="#b8b1a8"/>
  <rect x="278" y="280" width="232" height="150" rx="22" fill="#d0ccc4"/>
  <rect x="525" y="250" width="232" height="180" rx="22" fill="#c9c4bc"/>
  <rect x="770" y="280" width="232" height="150" rx="22" fill="#9da2a7"/>
  <rect x="1012" y="258" width="172" height="172" rx="22" fill="#737a81"/>
</svg>
