<svg width="1200" height="820" viewBox="0 0 1200 820" xmlns="http://www.w3.org/2000/svg">
  <rect width="1200" height="820" fill="#9fa7ad"/>
  <rect y="0" width="1200" height="520" fill="#7a858f"/>
  <rect y="520" width="1200" height="300" fill="#5a5a57"/>
  <rect x="0" y="500" width="1200" height="40" fill="#313131"/>
  <path d="M150 700V360" stroke="#ffffff" stroke-width="8"/>
  <path d="M460 670V250" stroke="#ffffff" stroke-width="8"/>
  <path d="M780 550V180" stroke="#ffffff" stroke-width="8"/>
  <path d="M1100 450V120" stroke="#ffffff" stroke-width="8"/>
  <text x="692" y="505" font-family="Arial, sans-serif" font-size="96" font-weight="700" fill="#e7d92b" opacity="0.9">P</text>
  <rect x="862" y="192" width="290" height="176" rx="24" fill="#0f1116"/>
  <rect x="900" y="140" width="260" height="82" rx="20" fill="#191b20"/>
  <rect x="0" y="560" width="1200" height="260" fill="#2b2d31"/>
  <rect x="0" y="540" width="1200" height="24" fill="#212328"/>
  <path d="M0 600C120 575 250 552 380 548" stroke="#f5f5f5" stroke-width="6" opacity="0.7"/>
  <path d="M0 720C170 680 360 650 580 650" stroke="#f5f5f5" stroke-width="6" opacity="0.45"/>
</svg>
