<svg width="1200" height="820" viewBox="0 0 1200 820" xmlns="http://www.w3.org/2000/svg">
  <defs>
    <filter id="noise" x="-20%" y="-20%" width="140%" height="140%">
      <feTurbulence type="fractalNoise" baseFrequency="0.9" numOctaves="2" stitchTiles="stitch"/>
      <feColorMatrix type="saturate" values="0"/>
      <feComponentTransfer>
        <feFuncA type="table" tableValues="0 0.06"/>
      </feComponentTransfer>
    </filter>
    <linearGradient id="sky" x1="0" y1="0" x2="0" y2="1">
      <stop offset="0%" stop-color="#dbe5ee"/>
      <stop offset="100%" stop-color="#b8c5d3"/>
    </linearGradient>
    <linearGradient id="ceiling" x1="0" y1="0" x2="0" y2="1">
      <stop offset="0%" stop-color="#e9e2d8"/>
      <stop offset="100%" stop-color="#cfc7bd"/>
    </linearGradient>
    <linearGradient id="road" x1="0" y1="0" x2="0" y2="1">
      <stop offset="0%" stop-color="#4a5665"/>
      <stop offset="100%" stop-color="#1f2933"/>
    </linearGradient>
  </defs>
  <rect width="1200" height="820" fill="url(#sky)"/>
  <rect y="58" width="1200" height="286" fill="url(#ceiling)"/>
  <rect y="344" width="1200" height="476" fill="url(#road)"/>
  <rect y="121" width="1200" height="5" fill="#f7f4ee" opacity="0.75"/>
  <rect y="204" width="1200" height="5" fill="#f7f4ee" opacity="0.75"/>
  <rect y="287" width="1200" height="5" fill="#f7f4ee" opacity="0.75"/>
  <rect x="156" y="320" width="44" height="500" fill="#737373"/>
  <rect x="523" y="320" width="44" height="500" fill="#737373"/>
  <rect x="887" y="320" width="44" height="500" fill="#737373"/>
  <rect x="0" y="344" width="1200" height="110" fill="#efebe4"/>
  <rect x="252" y="119" width="429" height="80" rx="6" fill="#191919" opacity="0.96"/>
  <text x="467" y="164" font-family="Arial, sans-serif" font-size="34" font-weight="700" text-anchor="middle" fill="#d6cfbe">Parking Entrance</text>
  <text x="467" y="191" font-family="Arial, sans-serif" font-size="22" font-weight="700" text-anchor="middle" fill="#c9c2b1">Covered Resident Access</text>
  <rect x="97" y="146" width="128" height="67" rx="5" fill="#1f1f1f" opacity="0.94"/>
  <text x="161" y="189" font-family="Arial, sans-serif" font-size="30" font-weight="700" text-anchor="middle" fill="#d6cfbe">Exit</text>
  <rect x="739" y="173" width="136" height="51" rx="5" fill="#1f1f1f" opacity="0.94"/>
  <text x="807" y="205" font-family="Arial, sans-serif" font-size="20" font-weight="700" text-anchor="middle" fill="#d6cfbe">Right Only</text>
  <g fill="#121212">
    <circle cx="173" cy="93" r="15"/>
    <circle cx="536" cy="93" r="15"/>
    <circle cx="902" cy="93" r="15"/>
    <circle cx="1084" cy="211" r="14"/>
  </g>
  <rect x="0" y="454" width="1200" height="20" fill="#384555"/>
  <path d="M0 476H1200" stroke="#eef4f8" stroke-width="4" stroke-dasharray="24 19" opacity="0.42"/>
  <path d="M71 652C157 612 240 598 332 596" stroke="#dae6ef" stroke-width="8" stroke-linecap="round" opacity="0.55"/>
  <path d="M974 619C1040 600 1098 596 1164 599" stroke="#dae6ef" stroke-width="8" stroke-linecap="round" opacity="0.48"/>
  <path d="M301 736C442 675 587 652 758 654" stroke="#dae6ef" stroke-width="8" stroke-linecap="round" opacity="0.34"/>
  <g>
    <rect x="263" y="406" width="141" height="72" rx="14" fill="#f3f3f3"/>
    <rect x="287" y="369" width="98" height="47" rx="11" fill="#d5dee7"/>
    <circle cx="300" cy="480" r="15" fill="#2e3944"/>
    <circle cx="379" cy="480" r="15" fill="#2e3944"/>
  </g>
  <g>
    <rect x="638" y="402" width="150" height="76" rx="15" fill="#20262c" opacity="0.95"/>
    <rect x="664" y="361" width="104" height="52" rx="11" fill="#cfd9e3"/>
    <circle cx="677" cy="480" r="16" fill="#1f2933"/>
    <circle cx="758" cy="480" r="16" fill="#1f2933"/>
  </g>
  <g>
    <rect x="860" y="417" width="145" height="67" rx="14" fill="#717f8b" opacity="0.95"/>
    <rect x="886" y="381" width="95" height="45" rx="11" fill="#d6e1eb"/>
    <circle cx="898" cy="486" r="15" fill="#2a3643"/>
    <circle cx="981" cy="486" r="15" fill="#2a3643"/>
  </g>
  <rect x="42" y="430" width="10" height="112" rx="5" fill="#cf7a22"/>
  <rect x="53" y="430" width="6" height="112" rx="3" fill="#f7e3a6"/>
  <rect x="1071" y="428" width="10" height="112" rx="5" fill="#cf7a22"/>
  <rect x="1082" y="428" width="6" height="112" rx="3" fill="#f7e3a6"/>
  <rect width="1200" height="820" filter="url(#noise)" opacity="0.6"/>
</svg>
