<svg width="1200" height="800" viewBox="0 0 1200 800" fill="none" xmlns="http://www.w3.org/2000/svg">
  <rect width="1200" height="800" rx="40" fill="#EEF6FF"/>
  <rect x="70" y="70" width="1060" height="660" rx="32" fill="#FDFEFF"/>
  <rect x="120" y="140" width="420" height="520" rx="30" fill="#E1F0FF"/>
  <rect x="170" y="190" width="140" height="160" rx="20" fill="#0E74D8"/>
  <rect x="350" y="190" width="140" height="160" rx="20" fill="#0E74D8"/>
  <text x="240" y="300" font-family="Arial, sans-serif" font-size="110" font-weight="700" text-anchor="middle" fill="#FFFFFF">P</text>
  <text x="420" y="300" font-family="Arial, sans-serif" font-size="110" font-weight="700" text-anchor="middle" fill="#FFFFFF">P</text>
  <path d="M185 470C185 441.281 208.281 418 237 418H424C452.719 418 476 441.281 476 470V546H185V470Z" fill="#0C5DAA"/>
  <rect x="219" y="446" width="72" height="42" rx="12" fill="#DCEEFF"/>
  <rect x="329" y="446" width="72" height="42" rx="12" fill="#DCEEFF"/>
  <circle cx="238" cy="554" r="22" fill="#183E5F"/>
  <circle cx="421" cy="554" r="22" fill="#183E5F"/>
  <rect x="600" y="140" width="480" height="120" rx="24" fill="#0F2F49"/>
  <rect x="640" y="185" width="180" height="16" rx="8" fill="#7ABEFF"/>
  <rect x="640" y="218" width="290" height="14" rx="7" fill="#D1E9FF"/>
  <rect x="600" y="300" width="480" height="360" rx="28" fill="#FFFFFF" stroke="#D6E8FA" stroke-width="6"/>
  <rect x="640" y="350" width="400" height="60" rx="18" fill="#EAF4FF"/>
  <rect x="640" y="440" width="400" height="60" rx="18" fill="#EAF4FF"/>
  <rect x="640" y="530" width="400" height="60" rx="18" fill="#EAF4FF"/>
  <circle cx="678" cy="380" r="14" fill="#0E74D8"/>
  <circle cx="678" cy="470" r="14" fill="#0E74D8"/>
  <circle cx="678" cy="560" r="14" fill="#0E74D8"/>
  <rect x="720" y="370" width="210" height="12" rx="6" fill="#76BAF4"/>
  <rect x="720" y="460" width="210" height="12" rx="6" fill="#76BAF4"/>
  <rect x="720" y="550" width="210" height="12" rx="6" fill="#76BAF4"/>
</svg>
